# xmcd
#
# Track frame offsets:
#	150
#	13135
#	29391
#	42356
#	56390
#	71873
#	87774
#	101408
#	116980
#	129176
#	144887
#	160959
#	175319
#	190129
#
# Disc length: 2756 seconds
#
# Revision: 0
# Processed by: cddbd v1.5.1PL2 Copyright (c) Steve Scherf et al.
# Submitted via: dBpowerAMP V4.0
#
DISCID=bb0ac20e
DTITLE=Palomo - Pasion
DYEAR=2006
DGENRE=Country
TTITLE0=01
TTITLE1=2
TTITLE2=03
TTITLE3=04
TTITLE4=05
TTITLE5=6
TTITLE6=7
TTITLE7=08
TTITLE8=09
TTITLE9=10
TTITLE10=11
TTITLE11=12
TTITLE12=13
TTITLE13=14
EXTD=jose luis perez
EXTT0=
EXTT1=
EXTT2=
EXTT3=
EXTT4=
EXTT5=
EXTT6=
EXTT7=
EXTT8=
EXTT9=
EXTT10=
EXTT11=
EXTT12=
EXTT13=
PLAYORDER=
